<svg width="96" height="96" viewBox="0 0 96 96" fill="none" xmlns="http://www.w3.org/2000/svg">
<path d="M91.1451 14.1744L21.8504 14.1638L18.946 5.29994C18.5131 3.97838 17.3129 2.93425 15.8143 2.57496L5.64915 0.138384C5.2661 0.046578 4.87221 0 4.4785 0C2.46124 0 0.68424 1.20664 0.15727 2.93442C-0.155143 3.95796 0.00115871 5.02824 0.597046 5.94782C1.19274 6.8674 2.15663 7.52624 3.31148 7.80301L11.0468 9.65719L26.7504 59.8673C24.5137 60.8456 23.0633 62.8728 23.0633 65.13C23.0633 68.3668 26.034 71 29.6853 71C33.3366 71 36.3075 68.3667 36.3075 65.13C36.3075 65.0535 36.3058 64.9774 36.3025 64.901H68.2705C68.2669 64.9774 68.2655 65.0539 68.2655 65.13C68.2655 68.3668 71.2362 71 74.8877 71C78.5392 71 81.5097 68.3667 81.5097 65.13C81.5097 62.1549 78.9582 59.6608 75.6928 59.3047C67.7469 58.1672 35.3185 56.7771 35.3185 56.7771L34.2533 53.0823H74.7146C76.7833 53.0823 78.6224 51.85 79.1876 50.0861L87.9317 22.7811H91.1453C93.8264 22.7811 96 20.8543 96 18.4777C96 16.101 93.8262 14.1744 91.1451 14.1744ZM39.6085 43.9449H32.0239C31.8166 43.9415 31.5122 43.9839 31.3734 43.5513C31.1971 43.0022 30.9502 42.2477 30.9502 42.2477L25.006 23.6856C24.977 23.5953 24.998 23.4964 25.0618 23.4217C25.1259 23.3464 25.2276 23.3015 25.334 23.3015H34.5518C34.7125 23.3015 34.8492 23.3986 34.884 23.5376L39.9114 43.4929L39.9296 43.5546C39.9392 43.5821 39.9439 43.6116 39.9439 43.6425C39.9439 43.8079 39.7937 43.9424 39.6085 43.9449ZM58.964 23.6694L54.8672 43.7091C54.8323 43.8479 54.6958 43.9447 54.5352 43.9447H48.8143C48.6534 43.9447 48.5167 43.8475 48.4815 43.7088L44.3851 23.6687C44.3624 23.5793 44.3868 23.4867 44.4521 23.4146C44.517 23.3429 44.6139 23.3017 44.7177 23.3017H58.6314C58.7353 23.3017 58.8322 23.3429 58.8973 23.4151C58.9624 23.4867 58.9866 23.5796 58.964 23.6694ZM78.3433 23.6863L71.9258 43.7253C71.8843 43.8548 71.7495 43.9454 71.5979 43.9454H63.7491C63.645 43.9454 63.5481 43.9042 63.4834 43.8323C63.4183 43.7603 63.3941 43.6671 63.4166 43.5773L68.4648 23.5378C68.4993 23.4011 68.6392 23.3019 68.7976 23.3019H78.0152C78.1215 23.3019 78.2229 23.3466 78.2869 23.4217C78.3512 23.4966 78.372 23.5955 78.3433 23.6863Z" fill="#0DA9A3"/>
</svg>
