<?xml version="1.0" encoding="utf-8"?>
<!DOCTYPE svg PUBLIC "-//W3C//DTD SVG 1.0//EN" "http://www.w3.org/TR/2001/REC-SVG-20010904/DTD/svg10.dtd">
<svg version="1.0" xmlns="http://www.w3.org/2000/svg" width="512px" height="290px" viewBox="0 0 512 290" preserveAspectRatio="xMidYMid meet">
 <g fill="#000000">
  <path d="M174.50 243.50 c-5.45 -0.65 -9.60 -2.60 -13.70 -6.45 -4.55 -4.30 -6.70 -8.95 -7.25 -15.65 -0.20 -2.40 -0.55 -4.55 -0.75 -4.75 -0.15 -0.20 -3.85 -0.50 -8.20 -0.65 -8.55 -0.30 -9.60 -0.60 -10.90 -3.15 -0.70 -1.35 -0.80 -2.55 -0.50 -7.85 0.15 -3.45 0.65 -7.70 1.05 -9.45 l0.80 -3.25 -2.25 -2.25 c-6.50 -6.75 -8.75 -16.20 -6.30 -26.45 0.55 -2.30 1 -4.70 1 -5.40 0 -0.70 0.45 -3.10 0.95 -5.35 1.10 -4.55 1.70 -7.85 2.80 -14.85 0.45 -2.60 1.10 -5.75 1.50 -6.95 0.40 -1.25 0.75 -3.05 0.75 -4.05 0 -1 0.45 -3.50 1 -5.55 0.55 -2.05 1 -4.55 1 -5.55 0 -1.05 0.35 -2.85 0.75 -4.10 0.40 -1.20 1 -3.90 1.25 -5.90 0.25 -2 0.80 -4.90 1.25 -6.40 0.40 -1.50 0.75 -3.55 0.75 -4.50 0 -0.95 0.45 -3.40 1 -5.45 0.55 -2.05 1 -4.25 1 -4.90 0 -0.70 0.45 -3.15 0.95 -5.55 0.55 -2.40 1.20 -5.70 1.50 -7.35 1.40 -8 3.50 -12.65 7.50 -16.70 4 -4.05 8.55 -6.25 14.35 -7 6.15 -0.75 138.65 -0.80 145.60 0 6.35 0.70 10.15 2.50 14.65 6.95 3.90 3.90 5.70 7 7 12 1.55 6.15 1.35 8.65 -1.65 23.40 -0.60 3.05 -0.85 5.35 -0.60 5.60 0.25 0.25 8.20 0.50 17.70 0.65 15.55 0.20 17.60 0.30 20.60 1.25 4.15 1.25 7.55 3.20 10.25 5.90 3.30 3.35 4.85 6 7.05 12.20 0.40 1.25 0.90 2.35 1.10 2.50 0.20 0.15 0.70 1.25 1.10 2.50 0.45 1.25 1.25 3.45 1.85 4.90 0.55 1.40 1.50 3.70 2.05 5.10 0.55 1.40 1.45 3.70 2.05 5.15 0.60 1.40 1.35 3.40 1.70 4.35 0.35 0.95 1.20 2.75 1.85 3.95 1.10 2.10 1.30 2.25 4.40 2.90 1.80 0.35 5.50 0.85 8.25 1.10 2.75 0.30 6.45 0.85 8.25 1.25 1.80 0.45 4.40 0.80 5.75 0.80 3.65 0.05 11.15 1.80 13.10 3.10 3.90 2.60 6 7.95 5.50 13.85 -0.55 5.85 -1.25 10.75 -2.05 13.80 -0.45 1.60 -0.80 3.75 -0.80 4.70 0 0.90 -0.45 3.65 -0.95 6 -0.55 2.35 -1.25 5.80 -1.50 7.70 -0.30 1.85 -0.80 4.85 -1.10 6.75 -0.30 1.85 -1.05 4.35 -1.65 5.60 -1.75 3.55 -3.05 3.95 -13.30 4.25 l-8.75 0.20 -1.35 1.55 c-0.80 0.85 -1.40 2.05 -1.40 2.70 0 0.65 -0.40 1.70 -0.90 2.35 -0.50 0.65 -1.05 1.55 -1.20 1.95 -0.70 1.85 -5.20 7.15 -8.45 9.90 -3.30 2.80 -6.85 4.85 -13.30 7.65 -2.40 1 -3.40 1.10 -10.75 1.10 -7.65 -0.05 -8.35 -0.15 -11.40 -1.40 -1.80 -0.75 -3.60 -1.65 -4.05 -2.05 -0.40 -0.40 -1 -0.70 -1.30 -0.70 -0.25 0 -1.75 -1.35 -3.35 -2.95 -3.95 -4.15 -6.10 -8.95 -6.55 -14.55 -0.20 -2.35 -0.60 -4.55 -0.85 -4.85 -0.40 -0.50 -14.20 -0.65 -65.95 -0.65 l-65.45 0 -2.50 5.05 c-2.75 5.65 -6.80 10.90 -10.70 14 -3.25 2.60 -8.95 5.95 -10.15 5.95 -0.50 0 -1.55 0.35 -2.40 0.80 -0.80 0.45 -3.50 1 -6 1.25 -5.05 0.50 -6.10 0.45 -10.75 -0.05z m13.75 -18.35 c1.40 -0.65 3.10 -1.75 3.85 -2.40 1.95 -1.65 4.75 -5.50 5.85 -7.95 1.70 -3.90 1.75 -5 0.25 -8.30 -1.70 -3.85 -4.30 -6.20 -8 -7.30 -2.65 -0.75 -3.05 -0.75 -5.85 0 -4.10 1.15 -6.95 2.95 -9.55 5.95 -3.35 4 -4.40 6.40 -4.40 10.35 0 2.90 0.20 3.60 1.55 5.60 1.60 2.40 4.50 4.65 6.85 5.40 2.20 0.70 6.65 0.05 9.45 -1.35z m195.60 -0.25 c5.85 -3.30 9.50 -8.25 10 -13.50 0.35 -4.20 -0.35 -6.35 -3.15 -9.10 -3.05 -3.05 -6.75 -4.20 -10.70 -3.25 -6.60 1.50 -12.20 6.95 -14.20 13.80 -0.90 2.90 -0.90 3.20 -0.10 5.25 3.25 8.25 10.70 11 18.15 6.80z m-92.45 -47.45 c1.05 -0.60 2.30 -1.65 2.80 -2.35 0.95 -1.25 3.30 -9.80 3.30 -12.10 0 -0.70 0.35 -2.60 0.75 -4.20 0.45 -1.60 1 -4.55 1.25 -6.50 0.30 -1.95 0.85 -5 1.25 -6.80 0.40 -1.80 1.15 -5.60 1.70 -8.50 0.55 -2.90 1.20 -6.50 1.50 -8 0.30 -1.50 0.80 -4.20 1.10 -6 0.30 -1.80 0.95 -5.10 1.50 -7.35 0.50 -2.25 0.95 -4.65 0.95 -5.25 0 -0.65 0.45 -3.30 0.95 -5.90 1.85 -8.80 2.10 -10.25 2.60 -13.25 0.30 -1.65 0.95 -4.90 1.45 -7.25 0.55 -2.35 1.10 -5.70 1.25 -7.50 0.35 -3.90 -0.55 -6.10 -3.20 -7.85 l-1.70 -1.15 -69.35 0 -69.35 0 -1.90 1.30 c-2.25 1.50 -3.70 3.15 -3.75 4.20 0 0.40 -0.45 2.50 -0.95 4.75 -0.50 2.20 -1.20 5.45 -1.50 7.25 -0.30 1.80 -0.75 4.45 -1.05 5.90 -0.25 1.40 -0.70 3.65 -0.95 5 -0.25 1.30 -0.70 3.70 -1.05 5.35 -0.30 1.65 -1.05 5.35 -1.60 8.25 -0.50 2.90 -1.40 7.30 -1.95 9.85 -0.50 2.50 -0.95 5.10 -0.95 5.80 0 0.65 -0.45 2.85 -1 4.90 -0.55 2.05 -1 4.45 -1 5.40 0 0.90 -0.45 3.40 -0.95 5.50 -0.55 2.10 -1.20 5.25 -1.50 7.05 -0.85 5.20 -1.55 8.95 -2.55 13.75 -2.10 10 -1.75 12.45 2.05 15.20 l2.10 1.55 68.95 0 68.95 0 1.85 -1.05z m80.85 -32.30 c-0.20 -0.50 -0.60 -1.70 -0.85 -2.65 -0.30 -0.95 -0.70 -1.95 -0.90 -2.25 -0.20 -0.25 -0.65 -1.40 -1 -2.50 -0.35 -1.10 -0.95 -2.45 -1.30 -3 -0.40 -0.55 -0.70 -1.35 -0.70 -1.85 0 -0.50 -0.45 -1.85 -0.95 -3 -0.50 -1.20 -1.45 -3.30 -2.05 -4.75 -1.35 -3.10 -3.20 -5 -5.55 -5.65 -2.65 -0.75 -22.05 -0.65 -23.15 0.15 -0.60 0.45 -1 1.80 -1.35 4.60 -0.25 2.20 -0.70 4.55 -0.95 5.25 -0.25 0.70 -0.70 3.10 -0.95 5.35 -0.30 2.30 -0.90 5.40 -1.35 6.95 -0.40 1.50 -0.65 3.10 -0.50 3.50 0.25 0.60 3.40 0.70 21.10 0.70 19.60 0 20.80 -0.05 20.45 -0.85z"/>
  <path d="M177.15 155 c-0.60 -0.25 -1.20 -0.85 -1.30 -1.35 -0.60 -2.10 -0.90 -6.75 -0.55 -8.90 0.60 -4 -2.95 -3.75 50.60 -3.75 l47.45 0 1.20 1.30 c1 1.05 1.20 1.90 1.35 5 0.15 2.25 -0.05 4.30 -0.40 5.25 -1.30 3.15 1.80 2.95 -50 2.90 -26 0 -47.75 -0.20 -48.35 -0.45z"/>
  <path d="M185.30 137.95 c-1.60 -1.25 -1.65 -2.55 -0.35 -8.70 1.25 -5.75 2.55 -9.10 5.25 -13.20 4.35 -6.75 9.20 -11.10 16.60 -14.95 1.45 -0.75 5.80 -2.50 7.05 -2.85 0.90 -0.25 1.15 -0.80 1.40 -3.55 0.45 -4.10 1.70 -5.70 5.30 -6.85 3.50 -1.15 8.80 -1.10 11.55 0.10 2.40 1 4.40 3.40 4.40 5.15 0 0.65 0.15 2 0.30 3.05 0.25 1.50 0.60 1.95 1.65 2.20 3.05 0.70 11.55 5.30 14.70 7.90 3.45 2.85 9.35 9.80 9.35 10.95 0 0.40 0.30 0.95 0.65 1.25 0.40 0.30 0.95 1.50 1.30 2.65 0.35 1.20 0.90 2.45 1.15 2.75 0.65 0.80 1.90 7.75 1.90 10.70 0 1.75 -0.25 2.55 -1.15 3.35 l-1.15 1.10 -39.30 0 c-38.95 0 -39.30 0 -40.60 -1.05z m41.95 -41.95 c-0.40 -0.65 -1.75 -0.65 -2.75 0 -0.55 0.35 -0.25 0.50 1.15 0.50 1.15 0 1.80 -0.20 1.60 -0.50z"/>
  <path d="M65.25 158.05 c-1.80 -0.60 -2.95 -1.45 -4.10 -3 -1.55 -2 -1.65 -2.40 -1.65 -6.20 0 -3.55 0.15 -4.30 1.30 -5.95 0.75 -1 2.15 -2.40 3.15 -3 l1.80 -1.15 23 0 c25.90 0 25.90 0 28.50 3.70 1.10 1.65 1.25 2.35 1.25 6.35 0 4.20 -0.10 4.65 -1.50 6.50 -2.60 3.60 -3.40 3.70 -27.95 3.70 -19.10 -0.05 -21.55 -0.15 -23.80 -0.95z"/>
  <path d="M70.95 128.20 c-3.50 -1.05 -5.30 -3.35 -5.70 -7.35 -0.60 -5.40 0.60 -8.45 4.20 -10.90 l1.80 -1.20 23.25 0 c22.90 0 23.30 0 25.30 1.10 1.10 0.60 2.65 2 3.40 3.10 1.30 1.85 1.40 2.30 1.25 6.15 -0.20 3.85 -0.35 4.35 -1.80 6.20 -2.85 3.60 -3.60 3.70 -28.10 3.65 -17 0 -21.75 -0.15 -23.60 -0.75z"/>
  <path d="M76.15 98.10 c-4.30 -1.75 -5.35 -4 -5.10 -10.50 0.20 -3.70 0.35 -4.20 1.70 -5.65 3.25 -3.45 3 -3.45 27.65 -3.45 l22.15 0 2.45 1.25 c3.60 1.85 5.20 4.50 5.25 8.75 0 4.25 -1.55 7.20 -4.75 9 l-2.25 1.25 -22.50 0.10 c-20 0.05 -22.75 -0.05 -24.60 -0.75z"/>
 </g>
 <g fill="none">
  <path d="M0 145 l0 -145 256 0 256 0 0 145 0 145 -256 0 -256 0 0 -145z m186.55 96.75 c1 -0.15 2.45 -0.60 3.25 -1 0.80 -0.40 1.85 -0.75 2.35 -0.75 1.20 0 6.90 -3.35 10.15 -5.95 3.90 -3.10 7.95 -8.35 10.70 -14 1.40 -2.75 2.80 -5.05 3.15 -5.05 0.30 0 30.40 0 66.80 0 44.40 0 66.40 0.15 66.80 0.50 0.35 0.30 0.75 2.45 0.95 4.90 0.50 5.70 2.60 10.45 6.60 14.65 1.60 1.60 3.10 2.95 3.35 2.95 0.30 0 0.90 0.30 1.30 0.70 0.45 0.40 2.25 1.30 4.05 2.05 2.95 1.20 3.85 1.30 10.05 1.30 5.90 0.05 7.05 -0.10 9.25 -1.05 6.75 -3 9.90 -4.85 13.15 -7.60 3.25 -2.75 7.75 -8.05 8.45 -9.90 0.15 -0.40 0.70 -1.30 1.20 -1.95 0.50 -0.65 0.90 -1.75 0.90 -2.40 0 -0.75 0.65 -1.90 1.65 -2.90 l1.65 -1.65 8.15 0 c4.70 -0.05 8.90 -0.30 9.90 -0.65 2 -0.65 4.65 -4.30 4.65 -6.40 0 -0.75 0.45 -3.65 1 -6.55 2.10 -11.30 2 -10.80 3.45 -19.25 0.30 -1.65 0.75 -4.10 1 -5.50 1.40 -7.50 1.65 -10.70 1.05 -13.30 -0.75 -3.15 -2.85 -6.30 -5.15 -7.85 -1.95 -1.30 -9.45 -3.05 -13.10 -3.10 -1.35 0 -3.95 -0.35 -5.75 -0.80 -1.80 -0.40 -5.50 -0.95 -8.25 -1.25 -2.75 -0.25 -6.45 -0.75 -8.25 -1.10 -3.10 -0.65 -3.30 -0.80 -4.40 -2.90 -0.65 -1.20 -1.50 -3 -1.85 -3.95 -0.35 -0.95 -1.10 -2.95 -1.70 -4.35 -0.60 -1.45 -1.50 -3.75 -2.05 -5.15 -0.55 -1.35 -1.50 -3.70 -2.05 -5.10 -0.60 -1.45 -1.40 -3.65 -1.85 -4.90 -0.40 -1.25 -0.90 -2.35 -1.10 -2.50 -0.20 -0.15 -0.70 -1.25 -1.10 -2.50 -2.20 -6.20 -3.75 -8.85 -7.05 -12.20 -2.70 -2.70 -6.10 -4.65 -10.25 -5.90 -3 -0.90 -5.20 -1.05 -20.85 -1.35 l-17.50 -0.30 -0.15 -2 c-0.10 -1.10 0.30 -4.25 0.85 -7 3 -14.70 3 -14.75 1.60 -20.25 -1.30 -5 -3.10 -8.10 -7 -12 -4.50 -4.45 -8.30 -6.25 -14.65 -6.95 -6.90 -0.80 -136.45 -0.75 -142.60 0 -5.80 0.75 -10.35 2.95 -14.35 7 -4 4.05 -6.10 8.70 -7.50 16.70 -0.30 1.65 -0.95 4.95 -1.50 7.35 -0.50 2.40 -0.95 4.85 -0.95 5.55 0 0.65 -0.45 2.85 -1 4.90 -0.55 2.05 -1 4.50 -1 5.45 0 0.95 -0.35 3 -0.75 4.50 -0.45 1.50 -1 4.40 -1.25 6.40 -0.25 2 -0.85 4.70 -1.25 5.90 -0.40 1.25 -0.75 3.05 -0.75 4.10 0 1 -0.45 3.50 -1 5.55 -0.55 2.05 -1 4.55 -1 5.55 0 1 -0.35 2.80 -0.75 4.05 -0.40 1.20 -1.05 4.35 -1.50 6.95 -1.10 7 -1.70 10.30 -2.80 14.85 -0.50 2.25 -0.95 4.65 -0.95 5.35 0 0.70 -0.45 3.10 -1 5.40 -1.30 5.45 -1.25 8.35 0.25 13.05 1.50 4.65 3.05 7.25 6.35 10.65 l2.45 2.50 -1 4.50 c-0.55 2.45 -1.15 6.60 -1.35 9.25 -0.60 8.35 0.65 9.35 11.65 9.50 3.90 0.05 7.35 0.25 7.70 0.50 0.35 0.20 0.75 2.15 1 4.80 0.55 6.75 2.70 11.35 7.25 15.70 2.90 2.70 4.25 3.60 7.80 5 4.15 1.65 9.55 2.05 16.45 1.20z m-75.10 -85.10 c3.75 -1.20 5.55 -3.75 5.55 -7.85 0 -3.70 -1.50 -6.20 -4.65 -7.60 -1.90 -0.90 -3.60 -0.95 -23.60 -0.95 l-21.50 0 -1.80 1.15 c-6.50 4.05 -5.75 12.65 1.30 15.15 2.25 0.80 4.65 0.90 22.30 0.95 17.15 0 20.20 -0.10 22.40 -0.85z m5.50 -30 c3.55 -1.15 5.65 -3.75 5.95 -7.45 0.20 -2.35 0.05 -3 -1.20 -4.75 -0.75 -1.10 -2.30 -2.50 -3.40 -3.10 -2 -1.10 -2.45 -1.10 -23.80 -1.10 l-21.75 0 -1.75 1.25 c-0.95 0.65 -2.15 1.70 -2.60 2.25 -2.35 2.70 -2.15 8.15 0.40 10.80 2.60 2.70 4 2.90 25.75 2.90 17.20 0.05 20.20 -0.05 22.40 -0.80z m7.05 -30.65 c2.65 -1.50 4.65 -4.70 4.65 -7.45 0 -2.75 -2.15 -5.75 -5.15 -7.30 l-2.45 -1.25 -20.65 0 c-19.05 0 -20.80 0.10 -22.65 0.95 -3.30 1.55 -4.90 3.60 -5.15 6.75 -0.40 4.75 1 7.25 5.05 8.90 1.85 0.70 4.50 0.80 23.10 0.75 l21 -0.10 2.25 -1.25z"/>
  <path d="M177.30 228 c-2.35 -0.75 -5.25 -3.05 -6.90 -5.45 -1.50 -2.20 -1.55 -2.55 -1.55 -7.05 0 -3.95 0.15 -5.10 1.10 -7 4.50 -8.80 13.60 -13.20 22 -10.70 3.45 1 6.10 3.45 7.80 7.25 1.15 2.60 1.35 3.55 1.10 5.90 -0.30 3.30 -1.70 6.65 -4.15 9.85 -3.85 5.05 -7.75 7.15 -13.80 7.45 -2.30 0.15 -4.80 0 -5.60 -0.25z"/>
  <path d="M372.75 228.05 c-3.75 -1 -6.40 -3.55 -8.25 -7.85 -3.50 -8.10 3.55 -19.95 13.35 -22.50 11.30 -2.95 19.60 4.30 17.60 15.30 -1 5.60 -4.50 10.25 -10.20 13.45 -2.40 1.35 -3.45 1.65 -6.90 1.80 -2.25 0.10 -4.75 0.05 -5.60 -0.20z"/>
  <path d="M148.05 178.45 c-3.05 -2.20 -3.75 -4.15 -3.35 -9.70 0.20 -2.45 0.75 -6.40 1.30 -8.75 0.95 -4.35 1.60 -7.75 2.55 -13.50 0.30 -1.80 0.95 -4.95 1.50 -7.05 0.50 -2.10 0.95 -4.60 0.95 -5.50 0 -0.95 0.45 -3.35 1 -5.40 0.55 -2.05 1 -4.25 1 -4.90 0 -0.70 0.45 -3.30 0.95 -5.80 0.55 -2.55 1.45 -6.95 1.95 -9.85 0.55 -2.90 1.30 -6.60 1.60 -8.25 0.35 -1.65 0.80 -4.05 1.05 -5.35 0.25 -1.35 0.70 -3.60 0.95 -5 0.30 -1.45 0.75 -4.10 1.05 -5.90 0.30 -1.80 1 -5.05 1.50 -7.25 0.50 -2.25 0.95 -4.35 0.95 -4.75 0.05 -1.05 1.50 -2.70 3.75 -4.20 l1.90 -1.30 70.70 0 c51.40 0 71 0.15 71.80 0.55 2.10 1.10 3.40 2.65 4.10 5.15 0.80 2.65 0.65 4.55 -1.25 13.55 -0.50 2.50 -1.15 5.85 -1.45 7.50 -0.50 3 -0.80 4.45 -2.60 13.25 -0.50 2.60 -0.95 5.25 -0.95 5.90 0 0.60 -0.45 3 -0.95 5.25 -0.55 2.25 -1.20 5.55 -1.50 7.35 -0.30 1.80 -0.80 4.50 -1.10 6 -0.30 1.50 -0.95 5.10 -1.50 8 -0.55 2.90 -1.30 6.70 -1.70 8.50 -0.40 1.80 -0.95 4.85 -1.25 6.80 -0.25 1.95 -0.80 4.90 -1.25 6.50 -0.40 1.60 -0.75 3.50 -0.75 4.20 0 2.30 -2.35 10.85 -3.30 12.10 -0.50 0.70 -1.75 1.75 -2.80 2.35 l-1.85 1.05 -70.45 0 -70.45 0 -2.10 -1.55z m124 -24.95 c2.65 -1.45 3.25 -7.30 0.95 -9.75 l-1.15 -1.25 -45.95 0 c-50.45 0 -48.80 -0.10 -49 2.90 -0.30 4.60 0.35 7.50 1.75 8.10 1.60 0.65 92.20 0.60 93.40 0z m-7.05 -17.20 c1.10 -1.25 1.10 -1.35 0.50 -5.40 -0.35 -2.30 -0.95 -4.60 -1.30 -5.20 -0.30 -0.55 -0.90 -1.95 -1.25 -3.10 -0.35 -1.15 -0.90 -2.35 -1.30 -2.65 -0.35 -0.30 -0.65 -0.85 -0.65 -1.25 0 -1.15 -5.90 -8.10 -9.35 -10.95 -3.15 -2.60 -11.65 -7.20 -14.70 -7.90 -1.05 -0.25 -1.40 -0.70 -1.65 -2.20 -0.15 -1.05 -0.30 -2.40 -0.30 -3.05 0 -2.90 -4.45 -6.10 -8.50 -6.10 -2.90 0 -6.90 1.50 -8.20 3.05 -0.85 1 -1.30 2.30 -1.55 4.65 -0.25 2.75 -0.50 3.30 -1.40 3.55 -0.60 0.15 -2.20 0.75 -3.60 1.35 -8.95 3.65 -15 8.65 -20.05 16.45 -2.65 4.10 -4 7.45 -5.25 13.20 l-0.95 4.50 1.30 1.15 1.25 1.10 37.90 0 37.90 0 1.15 -1.20z"/>
  <path d="M224 98.05 c-3.25 -0.35 -3.80 -1.35 -1.70 -3 1.10 -0.85 1.95 -1.05 3.90 -0.95 2.25 0.15 2.60 0.30 3.05 1.55 0.40 1.20 0.30 1.55 -0.50 2.15 -0.50 0.40 -1.20 0.65 -1.45 0.60 -0.30 -0.05 -1.80 -0.20 -3.30 -0.35z"/>
  <path d="M329.35 147.15 c-0.60 -0.55 -0.35 -4.40 0.40 -6.95 0.40 -1.35 0.95 -4.35 1.25 -6.70 0.30 -2.35 0.75 -4.80 1 -5.50 0.25 -0.70 0.70 -3.05 0.95 -5.25 0.35 -2.80 0.75 -4.15 1.35 -4.60 1.10 -0.80 23.50 -0.95 26.15 -0.15 2.35 0.65 4.20 2.55 5.55 5.65 0.60 1.45 1.55 3.55 2.05 4.75 0.50 1.15 0.95 2.50 0.95 3 0 0.50 0.30 1.30 0.70 1.85 0.35 0.55 0.85 1.55 1.05 2.25 0.20 0.70 0.65 1.95 1.05 2.75 1.20 2.75 2.30 6 2.55 7.65 l0.25 1.60 -22.45 0 c-12.35 0 -22.65 -0.15 -22.80 -0.35z"/>
 </g>
</svg>