<svg width="96" height="85" viewBox="0 0 96 85" fill="none" xmlns="http://www.w3.org/2000/svg">
<path fill-rule="evenodd" clip-rule="evenodd" d="M46.5 0C47.4141 0 48.3287 0 49.2429 0C62.5419 0.476034 73.7919 4.79462 82.9929 12.9558C91.0419 20.4458 95.3777 29.3032 96 39.5279C96 40.4455 96 41.363 96 42.2806C95.4159 53.6101 90.3874 63.1951 80.9143 71.0365C71.9931 78.0774 61.4361 81.8026 49.2429 82.2122C48.3287 82.2122 47.4141 82.2122 46.5 82.2122C34.4282 81.7556 23.9711 78.0425 15.1286 71.0732C5.59873 63.1937 0.555857 53.5594 0 42.1705C0 41.4977 0 40.8246 0 40.1519C0.0282277 39.3492 0.0782276 38.5417 0.15 37.7295C1.31039 27.2465 6.30326 18.383 15.1286 11.139C23.9709 4.16981 34.428 0.456788 46.5 0Z" fill="#0DA9A3"/>
<path fill-rule="evenodd" clip-rule="evenodd" d="M46.8842 22.9875C52.3519 22.8163 56.9591 24.4189 60.7056 27.7954C64.0879 31.1026 65.5309 34.9563 65.0342 39.3565C64.2825 43.9927 61.6326 47.5836 57.0842 50.1285C52.3596 52.527 47.3882 52.9799 42.1699 51.4865C37.121 49.8052 33.6567 46.7898 31.7771 42.4395C29.9541 37.4558 30.8399 32.868 34.4342 28.6763C37.6381 25.2825 41.7881 23.3862 46.8842 22.9875Z" fill="white"/>
<path fill-rule="evenodd" clip-rule="evenodd" d="M46.5425 57.1205C55.1812 56.9171 62.7811 59.1864 69.3425 63.9286C73.129 66.7796 76.0218 70.1867 78.0211 74.1501C78.0772 74.2452 78.106 74.3432 78.1068 74.4437C70.0578 81.1033 60.4077 84.6204 49.1568 84.9955C37.5658 85.1361 27.4944 81.9063 18.9425 75.3062C18.5825 74.9979 18.2254 74.6922 17.8711 74.3887C21.1428 67.8312 26.5142 62.974 33.9854 59.818C37.9674 58.2101 42.1531 57.3109 46.5425 57.1205Z" fill="white"/>
</svg>
