<?xml version="1.0" encoding="UTF-8"?>
<!DOCTYPE svg PUBLIC "-//W3C//DTD SVG 1.1//EN" "http://www.w3.org/Graphics/SVG/1.1/DTD/svg11.dtd">
<svg xmlns="http://www.w3.org/2000/svg" version="1.1" width="309px" height="340px" style="shape-rendering:geometricPrecision; text-rendering:geometricPrecision; image-rendering:optimizeQuality; fill-rule:evenodd; clip-rule:evenodd" xmlns:xlink="http://www.w3.org/1999/xlink">
<g><path style="opacity:1" fill="none" d="M -0.5,-0.5 C 102.5,-0.5 205.5,-0.5 308.5,-0.5C 308.5,112.833 308.5,226.167 308.5,339.5C 218.833,339.5 129.167,339.5 39.5,339.5C 40.531,338.751 41.6976,338.085 43,337.5C 45.8981,329.314 48.0647,320.981 49.5,312.5C 61.795,311.113 70.9617,305.113 77,294.5C 77.6667,292.5 77.6667,290.5 77,288.5C 72.4483,283.112 66.7816,279.445 60,277.5C 55.1849,279.302 51.1849,282.302 48,286.5C 44.5332,297.367 41.5332,308.367 39,319.5C 38.1686,326.146 37.6686,332.813 37.5,339.5C 24.8333,339.5 12.1667,339.5 -0.5,339.5C -0.5,226.167 -0.5,112.833 -0.5,-0.5 Z"/></g>
<g><path style="opacity:1" fill="#0a0909" d="M 149.5,9.5 C 161.357,8.34028 169.857,13.0069 175,23.5C 177.585,33.7705 180.918,43.7705 185,53.5C 191.111,61.7801 198.611,68.4468 207.5,73.5C 208.192,72.9747 208.692,72.3081 209,71.5C 209.333,63.1667 209.667,54.8333 210,46.5C 219.452,31.3508 232.618,26.5174 249.5,32C 260.86,36.0084 272.193,40.0084 283.5,44C 292.525,50.8908 296.525,60.0575 295.5,71.5C 285.167,71.5 274.833,71.5 264.5,71.5C 262.561,89.4918 256.394,105.825 246,120.5C 237.043,131.638 225.543,138.305 211.5,140.5C 209.5,140.333 207.5,140.167 205.5,140C 203.999,138.748 202.332,137.748 200.5,137C 195.632,133.297 191.298,129.13 187.5,124.5C 183.726,124.884 180.726,126.551 178.5,129.5C 185.807,139.973 193.307,150.307 201,160.5C 205.837,167.504 210.171,174.837 214,182.5C 214.667,184.833 214.667,187.167 214,189.5C 209.584,208.992 206.584,228.659 205,248.5C 208.966,251.464 212.633,254.797 216,258.5C 217.237,262.06 217.737,265.727 217.5,269.5C 206.5,269.5 195.5,269.5 184.5,269.5C 187.109,243.055 189.442,216.555 191.5,190C 191.561,188.289 190.894,186.956 189.5,186C 184.667,182.5 179.833,179 175,175.5C 172.549,193.118 170.215,210.785 168,228.5C 167.333,236.167 167.333,243.833 168,251.5C 171.274,254.644 174.941,257.311 179,259.5C 180.316,262.688 180.816,266.022 180.5,269.5C 170.167,269.5 159.833,269.5 149.5,269.5C 149.667,231.499 149.5,193.499 149,155.5C 143.623,149.788 137.957,144.455 132,139.5C 119.293,140.999 106.626,140.665 94,138.5C 92.3419,138.675 91.0086,139.342 90,140.5C 86.3348,155.15 82.6681,169.817 79,184.5C 78.3333,187.5 78.3333,190.5 79,193.5C 85.8368,212.839 93.5035,231.839 102,250.5C 107.562,253.465 112.895,256.799 118,260.5C 118.498,263.482 118.665,266.482 118.5,269.5C 108.833,269.5 99.1667,269.5 89.5,269.5C 86.5042,259.347 83.0042,249.347 79,239.5C 71.3333,225.833 63.6667,212.167 56,198.5C 53.9866,192.349 52.9866,186.016 53,179.5C 49.561,185.049 47.2277,191.049 46,197.5C 43.9689,215.789 42.9689,234.123 43,252.5C 50.8467,255.525 54.0134,261.192 52.5,269.5C 42.8333,269.5 33.1667,269.5 23.5,269.5C 23.3334,241.831 23.5,214.165 24,186.5C 27.7939,172.268 32.1272,158.268 37,144.5C 37.4254,131.453 36.7588,118.453 35,105.5C 34.6667,105.833 34.3333,106.167 34,106.5C 32.3333,113.167 30.6667,119.833 29,126.5C 24.9346,133.457 19.4346,134.957 12.5,131C 10.627,128.887 9.62699,126.387 9.5,123.5C 10.739,119.185 12.4057,115.018 14.5,111C 21.7357,100.361 27.2357,88.8609 31,76.5C 36.645,69.3539 42.4783,62.3539 48.5,55.5C 52.4175,46.9304 56.2509,38.2638 60,29.5C 64.5502,21.9496 70.7168,16.1163 78.5,12C 83.2867,11.1215 87.9534,11.4548 92.5,13C 100.08,20.2533 106.58,28.42 112,37.5C 117.667,46.3414 123.667,46.6748 130,38.5C 136.015,28.4596 142.515,18.7929 149.5,9.5 Z"/></g>
<g><path style="opacity:1" fill="#bcbf86" d="M 20.5,118.5 C 21.8189,120.605 21.4856,122.605 19.5,124.5C 18.9114,122.519 19.2447,120.519 20.5,118.5 Z"/></g>
<g><path style="opacity:1" fill="#fbae1a" d="M 203.5,195.5 C 202.169,198.049 201.169,197.716 200.5,194.5C 200.837,190.692 200.337,187.026 199,183.5C 188.957,174.964 178.457,166.964 167.5,159.5C 165.816,164.688 165.149,170.022 165.5,175.5C 163.57,179.373 162.903,183.706 163.5,188.5C 163.5,190.167 163.5,191.833 163.5,193.5C 162.883,193.611 162.383,193.944 162,194.5C 160.837,203.143 160.003,211.809 159.5,220.5C 159.5,226.833 159.5,233.167 159.5,239.5C 158.504,224.676 158.171,209.676 158.5,194.5C 160.067,186.287 159.734,178.287 157.5,170.5C 157.83,163.8 157.497,157.134 156.5,150.5C 151.416,146.42 147.083,141.754 143.5,136.5C 142.559,134.534 141.559,132.534 140.5,130.5C 142.015,129.409 142.848,128.076 143,126.5C 139.733,128.101 136.233,128.934 132.5,129C 118.444,129.831 104.444,129.331 90.5,127.5C 87.9208,127.083 85.7542,127.75 84,129.5C 80.4189,142.755 76.9189,156.088 73.5,169.5C 68.0875,179.375 67.0875,189.875 70.5,201C 70.1667,201.5 69.8333,202 69.5,202.5C 68.7124,201.23 67.7124,200.23 66.5,199.5C 64.8714,197.142 63.7048,194.476 63,191.5C 62.5682,174.822 62.5682,158.155 63,141.5C 54.9458,155.611 47.4458,169.944 40.5,184.5C 39.0689,184.881 38.2355,185.881 38,187.5C 36.2866,182.253 36.1199,176.919 37.5,171.5C 41.2295,162.81 44.0628,153.81 46,144.5C 46.5579,136.485 46.3912,128.485 45.5,120.5C 46.135,111.766 45.4684,103.433 43.5,95.5C 44.1031,90.3814 43.4364,85.7147 41.5,81.5C 40.9569,81.44 40.6236,81.1067 40.5,80.5C 41.376,79.7492 42.376,79.2492 43.5,79C 42.5494,78.2825 42.3828,77.4491 43,76.5C 44.8333,75.3333 46.3333,73.8333 47.5,72C 49.9469,72.2884 51.2803,73.7884 51.5,76.5C 52.5,76.5 53.5,76.5 54.5,76.5C 53.5321,73.9561 51.8655,71.7895 49.5,70C 50.9158,67.7355 52.9158,66.5688 55.5,66.5C 55.8782,64.079 56.5448,61.7457 57.5,59.5C 61.0834,48.2425 65.9168,37.5758 72,27.5C 75.9376,22.1789 81.1043,19.6789 87.5,20C 89.6667,22.1667 91.8333,24.3333 94,26.5C 99.3204,35.5002 105.82,43.6668 113.5,51C 121.685,55.2654 128.685,53.7654 134.5,46.5C 140.414,39.0104 145.581,31.0104 150,22.5C 155.183,17.2538 160.183,17.5871 165,23.5C 168.331,33.4713 171.664,43.4713 175,53.5C 184.783,69.6588 198.616,80.9922 216.5,87.5C 217.333,75.1801 217.833,62.8468 218,50.5C 222.037,43.3772 228.204,39.0439 236.5,37.5C 249.559,41.5141 262.559,45.6807 275.5,50C 281.312,52.2998 284.646,56.4665 285.5,62.5C 276.167,62.5 266.833,62.5 257.5,62.5C 256.164,81.6826 249.997,99.0159 239,114.5C 232.614,121.601 225.114,127.101 216.5,131C 213.5,131.667 210.5,131.667 207.5,131C 204.37,128.872 201.537,126.372 199,123.5C 197.206,119.553 194.706,116.219 191.5,113.5C 184.458,115.68 177.625,118.346 171,121.5C 169.908,125.797 169.575,130.131 170,134.5C 182.63,149.743 194.296,165.743 205,182.5C 204.837,186.832 204.337,191.166 203.5,195.5 Z"/></g>
<g><path style="opacity:1" fill="#d8a94e" d="M 143.5,136.5 C 141.33,135.162 139.664,133.328 138.5,131C 122.758,132.232 107.091,131.565 91.5,129C 90.944,128.617 90.6107,128.117 90.5,127.5C 104.444,129.331 118.444,129.831 132.5,129C 136.233,128.934 139.733,128.101 143,126.5C 142.848,128.076 142.015,129.409 140.5,130.5C 141.559,132.534 142.559,134.534 143.5,136.5 Z"/></g>
<g><path style="opacity:1" fill="#e0b22f" d="M 106.5,79.5 C 106.5,87.1667 106.5,94.8333 106.5,102.5C 106.171,108.206 106.505,113.872 107.5,119.5C 108.386,118.675 108.719,117.675 108.5,116.5C 110.144,116.714 111.644,116.38 113,115.5C 113.499,111.848 113.665,108.182 113.5,104.5C 114.335,99.9732 115.668,95.6399 117.5,91.5C 115.974,97.5794 114.974,103.746 114.5,110C 114.4,114.092 114.9,117.258 116,119.5C 115.667,119.167 115.333,118.833 115,118.5C 112.186,120.604 109.02,121.604 105.5,121.5C 105.171,107.323 105.504,93.3234 106.5,79.5 Z"/></g>
<g><path style="opacity:1" fill="#61a96e" d="M 137.5,111.5 C 138.151,112.091 138.818,112.757 139.5,113.5C 140.086,113.291 140.586,112.957 141,112.5C 141.318,114.061 142.151,115.228 143.5,116C 146.817,116.498 150.15,116.665 153.5,116.5C 147.8,119.808 142.633,119.142 138,114.5C 137.517,113.552 137.351,112.552 137.5,111.5 Z"/></g>
<g><path style="opacity:1" fill="#9ba748" d="M 106.5,102.5 C 107.325,106.647 107.825,110.981 108,115.5C 109,114.833 110,114.167 111,113.5C 111.204,110.203 112.037,107.203 113.5,104.5C 113.665,108.182 113.499,111.848 113,115.5C 111.644,116.38 110.144,116.714 108.5,116.5C 108.719,117.675 108.386,118.675 107.5,119.5C 106.505,113.872 106.171,108.206 106.5,102.5 Z"/></g>
<g><path style="opacity:1" fill="#64a870" d="M 153.5,116.5 C 150.663,114.598 147.329,113.931 143.5,114.5C 143.5,113.5 143.5,112.5 143.5,111.5C 144.967,111.894 146.467,112.227 148,112.5C 150.468,111.497 152.968,110.997 155.5,111C 156.428,111.388 157.095,112.055 157.5,113C 156.355,114.402 155.022,115.569 153.5,116.5 Z"/></g>
<g><path style="opacity:1" fill="#c4aa34" d="M 89.5,111.5 C 93.423,112.243 97.423,112.243 101.5,111.5C 101.614,114.216 100.614,116.216 98.5,117.5C 98.5,116.5 98.5,115.5 98.5,114.5C 95.8344,114.067 93.1677,113.567 90.5,113C 89.944,112.617 89.6107,112.117 89.5,111.5 Z"/></g>
<g><path style="opacity:1" fill="#48a783" d="M 79.5,84.5 C 78.9189,87.7828 78.5855,91.1161 78.5,94.5C 78.8652,99.6465 79.5319,104.313 80.5,108.5C 81.9821,104.656 82.8155,100.656 83,96.5C 83.6082,94.9336 84.4415,93.6002 85.5,92.5C 85.5,93.5 85.5,94.5 85.5,95.5C 83.5876,99.1936 83.0876,103.194 84,107.5C 84.3826,108.056 84.8826,108.389 85.5,108.5C 86.0478,110.532 87.3812,111.532 89.5,111.5C 89.6107,112.117 89.944,112.617 90.5,113C 93.1677,113.567 95.8344,114.067 98.5,114.5C 98.5,115.5 98.5,116.5 98.5,117.5C 96.6583,117.723 94.825,118.057 93,118.5C 89.72,117.025 86.22,116.192 82.5,116C 77.643,111.445 75.643,105.778 76.5,99C 76.603,94.4548 77.103,89.9548 78,85.5C 78.3826,84.944 78.8826,84.6107 79.5,84.5 Z"/></g>
<g><path style="opacity:1" fill="#5ba975" d="M 131.5,88.5 C 132.117,88.6107 132.617,88.944 133,89.5C 133.198,92.7021 134.031,95.7021 135.5,98.5C 136.835,96.7988 138.168,95.1321 139.5,93.5C 138.874,97.7553 137.874,101.922 136.5,106C 136.943,107.825 137.277,109.658 137.5,111.5C 135.805,113.732 134.638,116.399 134,119.5C 132.421,120.8 131.255,120.466 130.5,118.5C 131.5,118.5 132.5,118.5 133.5,118.5C 133.776,108.411 133.11,98.4114 131.5,88.5 Z"/></g>
<g><path style="opacity:1" fill="#c49d4b" d="M 43.5,95.5 C 45.4684,103.433 46.135,111.766 45.5,120.5C 44.1305,112.37 43.4639,104.037 43.5,95.5 Z"/></g>
<g><path style="opacity:1" fill="#bbb340" d="M 85.5,95.5 C 85.5,99.8333 85.5,104.167 85.5,108.5C 84.8826,108.389 84.3826,108.056 84,107.5C 83.0876,103.194 83.5876,99.1936 85.5,95.5 Z"/></g>
<g><path style="opacity:1" fill="#3ca88e" d="M 143.5,111.5 C 141.744,110.448 141.077,108.781 141.5,106.5C 145.394,106.89 149.06,106.223 152.5,104.5C 151.167,103.5 151.167,102.5 152.5,101.5C 149.833,100.833 147.167,100.167 144.5,99.5C 144.815,97.517 145.815,96.1837 147.5,95.5C 147.5,96.5 147.5,97.5 147.5,98.5C 149.167,98.5 150.833,98.5 152.5,98.5C 152.5,97.5 152.5,96.5 152.5,95.5C 151.167,95.5 149.833,95.5 148.5,95.5C 148.5,94.5 148.5,93.5 148.5,92.5C 146.097,92.393 144.264,93.393 143,95.5C 142.764,93.8807 141.931,92.8807 140.5,92.5C 141.023,90.2921 142.356,88.7921 144.5,88C 157.235,85.6353 162.068,90.802 159,103.5C 154.513,107.007 149.346,108.341 143.5,107.5C 143.5,108.833 143.5,110.167 143.5,111.5 Z"/></g>
<g><path style="opacity:1" fill="#e7b62d" d="M 147.5,95.5 C 147.833,95.5 148.167,95.5 148.5,95.5C 149.833,95.5 151.167,95.5 152.5,95.5C 152.5,96.5 152.5,97.5 152.5,98.5C 150.833,98.5 149.167,98.5 147.5,98.5C 147.5,97.5 147.5,96.5 147.5,95.5 Z"/></g>
<g><path style="opacity:1" fill="#15a9a2" d="M 140.5,92.5 C 141.931,92.8807 142.764,93.8807 143,95.5C 144.264,93.393 146.097,92.393 148.5,92.5C 148.5,93.5 148.5,94.5 148.5,95.5C 148.167,95.5 147.833,95.5 147.5,95.5C 145.815,96.1837 144.815,97.517 144.5,99.5C 147.167,100.167 149.833,100.833 152.5,101.5C 151.167,102.5 151.167,103.5 152.5,104.5C 149.06,106.223 145.394,106.89 141.5,106.5C 141.077,108.781 141.744,110.448 143.5,111.5C 143.5,112.5 143.5,113.5 143.5,114.5C 147.329,113.931 150.663,114.598 153.5,116.5C 150.15,116.665 146.817,116.498 143.5,116C 142.151,115.228 141.318,114.061 141,112.5C 140.586,112.957 140.086,113.291 139.5,113.5C 138.818,112.757 138.151,112.091 137.5,111.5C 137.277,109.658 136.943,107.825 136.5,106C 137.874,101.922 138.874,97.7553 139.5,93.5C 139.5,92.8333 139.833,92.5 140.5,92.5 Z"/></g>
<g><path style="opacity:1" fill="#23a99d" d="M 127.5,83.5 C 128.833,85.1667 130.167,86.8333 131.5,88.5C 133.11,98.4114 133.776,108.411 133.5,118.5C 132.5,118.5 131.5,118.5 130.5,118.5C 129.5,118.5 128.5,118.5 127.5,118.5C 126.252,109.519 125.086,100.519 124,91.5C 121.707,88.8661 119.54,88.8661 117.5,91.5C 115.668,95.6399 114.335,99.9732 113.5,104.5C 112.037,107.203 111.204,110.203 111,113.5C 110,114.167 109,114.833 108,115.5C 107.825,110.981 107.325,106.647 106.5,102.5C 106.5,94.8333 106.5,87.1667 106.5,79.5C 106.264,71.9329 107.93,64.9329 111.5,58.5C 112.583,58.5394 113.583,58.8728 114.5,59.5C 115.95,56.8586 116.617,57.1919 116.5,60.5C 114.981,68.4297 114.315,76.4297 114.5,84.5C 116.594,83.7578 118.761,83.0911 121,82.5C 123.187,82.7885 125.354,83.1218 127.5,83.5 Z"/></g>
<g><path style="opacity:1" fill="#2ca99a" d="M 85.5,92.5 C 84.4415,93.6002 83.6082,94.9336 83,96.5C 82.8155,100.656 81.9821,104.656 80.5,108.5C 79.5319,104.313 78.8652,99.6465 78.5,94.5C 78.5855,91.1161 78.9189,87.7828 79.5,84.5C 80.7944,76.3457 85.1277,70.179 92.5,66C 101.511,64.5096 105.511,68.3429 104.5,77.5C 101.91,77.6038 99.5771,76.9371 97.5,75.5C 94.3328,76.0007 91.9995,77.6674 90.5,80.5C 88.4251,84.408 86.7584,88.408 85.5,92.5 Z"/></g>
<g><path style="opacity:1" fill="#49a379" d="M 127.5,83.5 C 125.354,83.1218 123.187,82.7885 121,82.5C 118.761,83.0911 116.594,83.7578 114.5,84.5C 114.315,76.4297 114.981,68.4297 116.5,60.5C 116.617,57.1919 115.95,56.8586 114.5,59.5C 113.583,58.8728 112.583,58.5394 111.5,58.5C 112.923,57.5515 114.423,56.5515 116,55.5C 116.772,55.6448 117.439,55.9781 118,56.5C 117.338,64.8271 116.505,73.1604 115.5,81.5C 118.85,81.335 122.183,81.5017 125.5,82C 126.416,82.2784 127.082,82.7784 127.5,83.5 Z"/></g>
<g><path style="opacity:1" fill="#e8a93a" d="M 57.5,59.5 C 56.5448,61.7457 55.8782,64.079 55.5,66.5C 52.9158,66.5688 50.9158,67.7355 49.5,70C 51.8655,71.7895 53.5321,73.9561 54.5,76.5C 53.5,76.5 52.5,76.5 51.5,76.5C 51.2803,73.7884 49.9469,72.2884 47.5,72C 46.3333,73.8333 44.8333,75.3333 43,76.5C 42.3828,77.4491 42.5494,78.2825 43.5,79C 42.376,79.2492 41.376,79.7492 40.5,80.5C 40.6236,81.1067 40.9569,81.44 41.5,81.5C 40.5423,82.9616 39.3756,84.2949 38,85.5C 38.1762,81.7984 39.5095,78.4651 42,75.5C 47.3972,70.2714 52.5639,64.938 57.5,59.5 Z"/></g>
<g><path style="opacity:1" fill="#d2a059" d="M 165.5,175.5 C 165.116,180.01 164.449,184.343 163.5,188.5C 162.903,183.706 163.57,179.373 165.5,175.5 Z"/></g>
<g><path style="opacity:1" fill="#dea841" d="M 37.5,171.5 C 36.1199,176.919 36.2866,182.253 38,187.5C 38.2355,185.881 39.0689,184.881 40.5,184.5C 38.1765,193.139 36.5098,201.806 35.5,210.5C 36.1164,202.802 36.1164,195.135 35.5,187.5C 34.6725,191.796 34.1725,196.129 34,200.5C 33.6174,201.056 33.1174,201.389 32.5,201.5C 33.254,196.537 33.5874,191.537 33.5,186.5C 33.4165,181.036 34.7498,176.036 37.5,171.5 Z"/></g>
<g><path style="opacity:1" fill="#d1ad69" d="M 157.5,170.5 C 159.734,178.287 160.067,186.287 158.5,194.5C 158.167,194.5 157.833,194.5 157.5,194.5C 157.5,186.5 157.5,178.5 157.5,170.5 Z"/></g>
<g><path style="opacity:1" fill="#82744c" d="M 33.5,186.5 C 33.5874,191.537 33.254,196.537 32.5,201.5C 32.7373,202.791 32.404,203.791 31.5,204.5C 31.3877,198.274 32.0543,192.274 33.5,186.5 Z"/></g>
<g><path style="opacity:1" fill="#dba643" d="M 73.5,169.5 C 70.9217,178.672 70.0884,188.005 71,197.5C 72.607,202.154 74.107,206.82 75.5,211.5C 75.5,212.5 75.5,213.5 75.5,214.5C 72.142,209.787 69.142,204.787 66.5,199.5C 67.7124,200.23 68.7124,201.23 69.5,202.5C 69.8333,202 70.1667,201.5 70.5,201C 67.0875,189.875 68.0875,179.375 73.5,169.5 Z"/></g>
<g><path style="opacity:1" fill="#d9ad56" d="M 163.5,193.5 C 162.522,202.686 161.188,211.686 159.5,220.5C 160.003,211.809 160.837,203.143 162,194.5C 162.383,193.944 162.883,193.611 163.5,193.5 Z"/></g>
<g><path style="opacity:1" fill="#cfa34c" d="M 200.5,194.5 C 201.169,197.716 202.169,198.049 203.5,195.5C 202.329,203.536 200.996,211.536 199.5,219.5C 198.833,219.5 198.167,219.5 197.5,219.5C 198.149,210.984 199.149,202.651 200.5,194.5 Z"/></g>
<g><path style="opacity:1" fill="#fbad18" d="M 35.5,210.5 C 35.5,212.167 35.5,213.833 35.5,215.5C 34.7784,215.918 34.2784,216.584 34,217.5C 33.409,227.674 32.5756,237.674 31.5,247.5C 31.5,233.167 31.5,218.833 31.5,204.5C 32.404,203.791 32.7373,202.791 32.5,201.5C 33.1174,201.389 33.6174,201.056 34,200.5C 34.1725,196.129 34.6725,191.796 35.5,187.5C 36.1164,195.135 36.1164,202.802 35.5,210.5 Z"/></g>
<g><path style="opacity:1" fill="#7e736b" d="M 75.5,211.5 C 76.905,213.225 77.405,215.225 77,217.5C 75.9614,216.756 75.4614,215.756 75.5,214.5C 75.5,213.5 75.5,212.5 75.5,211.5 Z"/></g>
<g><path style="opacity:1" fill="#696968" d="M 197.5,219.5 C 198.167,219.5 198.833,219.5 199.5,219.5C 196.882,236.706 196.215,236.706 197.5,219.5 Z"/></g>
<g><path style="opacity:1" fill="#e5ac41" d="M 157.5,194.5 C 157.833,194.5 158.167,194.5 158.5,194.5C 158.171,209.676 158.504,224.676 159.5,239.5C 159.334,244.844 159.501,250.177 160,255.5C 163.887,259.308 163.053,260.975 157.5,260.5C 157.5,238.5 157.5,216.5 157.5,194.5 Z"/></g>
<g><path style="opacity:1" fill="#ce9e4f" d="M 194.5,248.5 C 197.222,252.732 200.555,256.565 204.5,260C 200.848,260.499 197.182,260.665 193.5,260.5C 194.021,256.519 194.354,252.519 194.5,248.5 Z"/></g>
<g><path style="opacity:1" fill="#dcac48" d="M 35.5,215.5 C 33.9633,230.119 33.2967,244.785 33.5,259.5C 35.1992,259.34 36.8659,259.506 38.5,260C 36.4588,261.741 34.2921,261.908 32,260.5C 31.501,256.179 31.3343,251.846 31.5,247.5C 32.5756,237.674 33.409,227.674 34,217.5C 34.2784,216.584 34.7784,215.918 35.5,215.5 Z"/></g>
<g><path style="opacity:1" fill="#fa7017" d="M 39.5,339.5 C 38.8333,339.5 38.1667,339.5 37.5,339.5C 37.6686,332.813 38.1686,326.146 39,319.5C 41.5332,308.367 44.5332,297.367 48,286.5C 51.1849,282.302 55.1849,279.302 60,277.5C 66.7816,279.445 72.4483,283.112 77,288.5C 77.6667,290.5 77.6667,292.5 77,294.5C 70.9617,305.113 61.795,311.113 49.5,312.5C 48.0647,320.981 45.8981,329.314 43,337.5C 41.6976,338.085 40.531,338.751 39.5,339.5 Z"/></g>
<g><path style="opacity:1" fill="#f8711b" d="M 100.5,277.5 C 101.5,277.5 102.5,277.5 103.5,277.5C 102.943,281.421 101.11,284.755 98,287.5C 96.8822,289.765 96.0488,292.099 95.5,294.5C 89.5205,294.406 87.3538,291.406 89,285.5C 90.0395,283.254 91.2062,281.087 92.5,279C 95.3647,278.817 98.0314,278.317 100.5,277.5 Z"/></g>
<g><path style="opacity:1" fill="#ffffff" d="M 57.5,289.5 C 65.7651,290.838 67.0985,294.338 61.5,300C 59.2379,301.047 57.0712,302.213 55,303.5C 54.5,303.167 54,302.833 53.5,302.5C 54.8643,298.151 56.1977,293.818 57.5,289.5 Z"/></g>
<g><path style="opacity:1" fill="#fa7017" d="M 210.5,297.5 C 215.639,298.23 220.472,299.897 225,302.5C 225.167,303.167 225.333,303.833 225.5,304.5C 221.251,312.555 219.085,321.222 219,330.5C 217.559,331.26 216.059,331.926 214.5,332.5C 213.868,330.263 212.535,328.597 210.5,327.5C 206.454,331.091 201.788,332.257 196.5,331C 194,329.833 192.167,328 191,325.5C 189.519,316.628 192.353,309.461 199.5,304C 203.096,301.539 206.763,299.373 210.5,297.5 Z"/></g>
<g><path style="opacity:1" fill="#ffffff" d="M 207.5,309.5 C 208.833,309.5 210.167,309.5 211.5,309.5C 212.051,317.284 208.385,321.284 200.5,321.5C 200.343,320.127 200.51,318.793 201,317.5C 203.054,314.626 205.221,311.959 207.5,309.5 Z"/></g>
<g><path style="opacity:1" fill="#f97010" d="M 135.5,295.5 C 139.071,295.408 140.238,297.074 139,300.5C 132.329,307.337 125.496,314.004 118.5,320.5C 124.463,321.496 130.463,321.829 136.5,321.5C 135.719,325.776 133.052,328.276 128.5,329C 119.253,330.991 109.92,331.657 100.5,331C 100.043,330.586 99.7093,330.086 99.5,329.5C 105.464,322.201 111.797,315.201 118.5,308.5C 115.5,307.833 112.5,307.167 109.5,306.5C 106.994,303.223 106.994,300.056 109.5,297C 114.98,297.204 120.48,297.704 126,298.5C 129.565,298.452 132.732,297.452 135.5,295.5 Z"/></g>
<g><path style="opacity:1" fill="#fa7110" d="M 88.5,297.5 C 91.1667,297.5 93.8333,297.5 96.5,297.5C 94.4905,303.186 92.3238,308.852 90,314.5C 87.7636,321.367 86.2636,328.367 85.5,335.5C 83.5,335.5 81.5,335.5 79.5,335.5C 77.6865,323.733 79.1865,312.399 84,301.5C 85.9923,300.672 87.4923,299.339 88.5,297.5 Z"/></g>
<g><path style="opacity:1" fill="#f97014" d="M 179.5,295.5 C 183.071,295.408 184.238,297.074 183,300.5C 176.292,307.375 169.459,314.042 162.5,320.5C 168.463,321.496 174.463,321.829 180.5,321.5C 180.132,325.706 177.798,328.206 173.5,329C 163.592,330.911 153.592,331.744 143.5,331.5C 143.954,328.86 145.121,326.527 147,324.5C 152.348,319.319 157.515,313.985 162.5,308.5C 159.572,307.516 156.572,307.183 153.5,307.5C 153.336,304.326 152.336,301.493 150.5,299C 151.672,298.581 152.672,297.915 153.5,297C 158.028,297.912 162.695,298.412 167.5,298.5C 170.167,298.333 172.833,298.167 175.5,298C 177.437,297.878 178.77,297.045 179.5,295.5 Z"/></g>
</svg>
